<svg width="32" height="32" viewBox="0 0 32 32" fill="none" xmlns="http://www.w3.org/2000/svg">
<g clip-path="url(#clip0_1_6)">
<rect width="31.88" height="32" rx="4" fill="white"/>
<rect width="32" height="11" fill="black"/>
<path d="M12.7091 15.8182V26H10.5564V17.8615H10.4967L8.16504 19.3232V17.4141L10.6856 15.8182H12.7091ZM19.0367 26.1392C18.513 26.1359 18.0075 26.0481 17.5203 25.8757C17.0364 25.7034 16.6022 25.4233 16.2178 25.0355C15.8333 24.6477 15.5284 24.134 15.303 23.4943C15.0809 22.8546 14.9699 22.0691 14.9699 21.1378C14.9732 20.2827 15.071 19.5187 15.2632 18.8459C15.4588 18.1697 15.7372 17.5964 16.0985 17.1257C16.463 16.6551 16.8989 16.2971 17.406 16.0518C17.9131 15.8033 18.4815 15.679 19.1112 15.679C19.7907 15.679 20.3906 15.8116 20.911 16.0767C21.4313 16.3385 21.8489 16.6948 22.1638 17.1456C22.482 17.5964 22.6742 18.1018 22.7405 18.6619H20.6176C20.5348 18.3073 20.3608 18.0289 20.0956 17.8267C19.8305 17.6245 19.5023 17.5234 19.1112 17.5234C18.4484 17.5234 17.9446 17.8118 17.5999 18.3885C17.2585 18.9652 17.0845 19.7491 17.0779 20.7401H17.1475C17.2999 20.4384 17.5054 20.1816 17.7639 19.9695C18.0258 19.754 18.3224 19.59 18.6539 19.4773C18.9886 19.3613 19.3416 19.3033 19.7128 19.3033C20.316 19.3033 20.853 19.4458 21.3236 19.7308C21.7942 20.0125 22.1655 20.4003 22.4372 20.8942C22.709 21.388 22.8449 21.9531 22.8449 22.5895C22.8449 23.2789 22.6842 23.892 22.3627 24.429C22.0445 24.9659 21.5987 25.3868 21.0253 25.6918C20.4552 25.9934 19.7923 26.1425 19.0367 26.1392ZM19.0267 24.4489C19.3582 24.4489 19.6548 24.3693 19.9166 24.2102C20.1785 24.0511 20.384 23.8357 20.5331 23.5639C20.6823 23.2921 20.7568 22.9872 20.7568 22.6491C20.7568 22.3111 20.6823 22.0078 20.5331 21.7393C20.3873 21.4709 20.1851 21.2571 19.9266 21.098C19.6681 20.9389 19.3731 20.8594 19.0416 20.8594C18.7931 20.8594 18.5627 20.9058 18.3506 20.9986C18.1418 21.0914 17.9578 21.2206 17.7987 21.3864C17.643 21.5521 17.5203 21.7443 17.4308 21.9631C17.3414 22.1785 17.2966 22.4089 17.2966 22.6541C17.2966 22.9822 17.3712 23.2822 17.5203 23.554C17.6728 23.8258 17.8783 24.0429 18.1368 24.2053C18.3986 24.3677 18.6953 24.4489 19.0267 24.4489Z" fill="black"/>
<path d="M10.5683 8V4.72727H11.4333V5.30469H11.4717C11.5399 5.11293 11.6535 4.96165 11.8126 4.85085C11.9717 4.74006 12.162 4.68466 12.3836 4.68466C12.608 4.68466 12.7991 4.74077 12.9568 4.85298C13.1144 4.96378 13.2195 5.11435 13.2721 5.30469H13.3062C13.373 5.11719 13.4937 4.96733 13.6684 4.85511C13.8445 4.74148 14.0526 4.68466 14.2927 4.68466C14.5981 4.68466 14.846 4.78196 15.0363 4.97656C15.2281 5.16974 15.324 5.44389 15.324 5.79901V8H14.4184V5.97798C14.4184 5.79616 14.3701 5.6598 14.2735 5.56889C14.1769 5.47798 14.0562 5.43253 13.9113 5.43253C13.7465 5.43253 13.618 5.48509 13.5257 5.5902C13.4333 5.69389 13.3872 5.83097 13.3872 6.00142V8H12.5072V5.95881C12.5072 5.7983 12.461 5.67045 12.3687 5.57528C12.2778 5.48011 12.1578 5.43253 12.0086 5.43253C11.9078 5.43253 11.8169 5.4581 11.7359 5.50923C11.6563 5.55895 11.5931 5.62926 11.5463 5.72017C11.4994 5.80966 11.4759 5.91477 11.4759 6.03551V8H10.5683ZM16.9742 8.06179C16.7654 8.06179 16.5793 8.02557 16.4159 7.95312C16.2526 7.87926 16.1233 7.7706 16.0281 7.62713C15.9344 7.48224 15.8875 7.30185 15.8875 7.08594C15.8875 6.90412 15.9209 6.75142 15.9877 6.62784C16.0544 6.50426 16.1453 6.40483 16.2604 6.32955C16.3754 6.25426 16.5061 6.19744 16.6524 6.15909C16.8002 6.12074 16.955 6.09375 17.1169 6.07812C17.3073 6.05824 17.4607 6.03977 17.5771 6.02273C17.6936 6.00426 17.7781 5.97727 17.8307 5.94176C17.8833 5.90625 17.9095 5.85369 17.9095 5.78409V5.77131C17.9095 5.63636 17.8669 5.53196 17.7817 5.4581C17.6979 5.38423 17.5786 5.3473 17.4237 5.3473C17.2604 5.3473 17.1304 5.38352 17.0338 5.45597C16.9372 5.52699 16.8733 5.61648 16.8421 5.72443L16.0026 5.65625C16.0452 5.45739 16.129 5.28551 16.254 5.14062C16.379 4.99432 16.5402 4.8821 16.7377 4.80398C16.9365 4.72443 17.1666 4.68466 17.428 4.68466C17.6098 4.68466 17.7838 4.70597 17.95 4.74858C18.1176 4.79119 18.2661 4.85724 18.3953 4.94673C18.526 5.03622 18.629 5.15128 18.7043 5.2919C18.7796 5.43111 18.8172 5.59801 18.8172 5.79261V8H17.9564V7.54616H17.9308C17.8783 7.64844 17.808 7.73864 17.7199 7.81676C17.6318 7.89347 17.526 7.95384 17.4024 7.99787C17.2789 8.04048 17.1361 8.06179 16.9742 8.06179ZM17.2341 7.43537C17.3676 7.43537 17.4855 7.40909 17.5878 7.35653C17.6901 7.30256 17.7703 7.23011 17.8286 7.1392C17.8868 7.0483 17.9159 6.94531 17.9159 6.83026V6.48295C17.8875 6.50142 17.8485 6.51847 17.7987 6.53409C17.7504 6.5483 17.6958 6.56179 17.6347 6.57457C17.5736 6.58594 17.5125 6.59659 17.4514 6.60653C17.3904 6.61506 17.335 6.62287 17.2852 6.62997C17.1787 6.6456 17.0857 6.67045 17.0061 6.70455C16.9266 6.73864 16.8648 6.7848 16.8208 6.84304C16.7767 6.89986 16.7547 6.97088 16.7547 7.05611C16.7547 7.17969 16.7994 7.27415 16.8889 7.33949C16.9798 7.40341 17.0949 7.43537 17.2341 7.43537ZM19.5214 8V4.72727H20.4291V8H19.5214ZM19.9774 4.3054C19.8424 4.3054 19.7267 4.26065 19.6301 4.17116C19.5349 4.08026 19.4873 3.97159 19.4873 3.84517C19.4873 3.72017 19.5349 3.61293 19.6301 3.52344C19.7267 3.43253 19.8424 3.38707 19.9774 3.38707C20.1123 3.38707 20.2274 3.43253 20.3225 3.52344C20.4191 3.61293 20.4674 3.72017 20.4674 3.84517C20.4674 3.97159 20.4191 4.08026 20.3225 4.17116C20.2274 4.26065 20.1123 4.3054 19.9774 4.3054Z" fill="white"/>
</g>
<rect x="0.5" y="0.5" width="30.88" height="31" rx="3.5" stroke="#EEEEEE"/>
<defs>
<clipPath id="clip0_1_6">
<rect width="31.88" height="32" rx="4" fill="white"/>
</clipPath>
</defs>
</svg>
